<mxfile host="app.diagrams.net" modified="2023-10-23T02:05:42.379Z" agent="Mozilla/5.0 (Macintosh; Intel Mac OS X 10_15_7) AppleWebKit/537.36 (KHTML, like Gecko) Chrome/118.0.0.0 Safari/537.36" etag="nS5_UA2FBLIKpXg9G0Wu" version="21.8.2" type="github">
  <diagram name="第 1 页" id="pwNHqA7L5wh-8GGMVhB-">
    <mxGraphModel dx="1004" dy="732" grid="1" gridSize="10" guides="1" tooltips="1" connect="1" arrows="1" fold="1" page="1" pageScale="1" pageWidth="827" pageHeight="1169" math="0" shadow="0">
      <root>
        <mxCell id="0" />
        <mxCell id="1" parent="0" />
        <mxCell id="Yl5U9rDFYTrx_f_o4PTZ-8" value="" style="rounded=0;whiteSpace=wrap;html=1;rotation=90;" vertex="1" parent="1">
          <mxGeometry x="5" y="734.38" width="310" height="10" as="geometry" />
        </mxCell>
        <mxCell id="Yl5U9rDFYTrx_f_o4PTZ-6" value="" style="endArrow=none;dashed=1;html=1;rounded=0;entryX=0.5;entryY=1;entryDx=0;entryDy=0;" edge="1" parent="1" source="Yl5U9rDFYTrx_f_o4PTZ-8" target="Yl5U9rDFYTrx_f_o4PTZ-5">
          <mxGeometry width="50" height="50" relative="1" as="geometry">
            <mxPoint x="160" y="790" as="sourcePoint" />
            <mxPoint x="160" y="140" as="targetPoint" />
            <Array as="points">
              <mxPoint x="160" y="300" />
            </Array>
          </mxGeometry>
        </mxCell>
        <mxCell id="VDtPEl2qfjK_g-uWMviU-2" value="Client" style="rounded=1;whiteSpace=wrap;html=1;" parent="1" vertex="1">
          <mxGeometry x="387.5" y="80" width="120" height="60" as="geometry" />
        </mxCell>
        <mxCell id="VDtPEl2qfjK_g-uWMviU-3" value="Server" style="rounded=1;whiteSpace=wrap;html=1;" parent="1" vertex="1">
          <mxGeometry x="100" y="80" width="120" height="60" as="geometry" />
        </mxCell>
        <mxCell id="VDtPEl2qfjK_g-uWMviU-5" value="Client" style="rounded=0;whiteSpace=wrap;html=1;" parent="1" vertex="1">
          <mxGeometry x="387.5" y="80" width="120" height="60" as="geometry" />
        </mxCell>
        <mxCell id="VDtPEl2qfjK_g-uWMviU-6" value="Server" style="rounded=0;whiteSpace=wrap;html=1;" parent="1" vertex="1">
          <mxGeometry x="100" y="80" width="120" height="60" as="geometry" />
        </mxCell>
        <mxCell id="VDtPEl2qfjK_g-uWMviU-8" value="" style="endArrow=none;dashed=1;html=1;rounded=0;entryX=0.5;entryY=1;entryDx=0;entryDy=0;" parent="1" source="VDtPEl2qfjK_g-uWMviU-50" target="VDtPEl2qfjK_g-uWMviU-5" edge="1">
          <mxGeometry width="50" height="50" relative="1" as="geometry">
            <mxPoint x="447.5" y="600" as="sourcePoint" />
            <mxPoint x="287.5" y="270" as="targetPoint" />
          </mxGeometry>
        </mxCell>
        <mxCell id="VDtPEl2qfjK_g-uWMviU-9" value="" style="endArrow=none;dashed=1;html=1;rounded=0;entryX=0.5;entryY=1;entryDx=0;entryDy=0;" parent="1" target="VDtPEl2qfjK_g-uWMviU-6" edge="1" source="Yl5U9rDFYTrx_f_o4PTZ-5">
          <mxGeometry width="50" height="50" relative="1" as="geometry">
            <mxPoint x="160" y="790" as="sourcePoint" />
            <mxPoint x="210" y="270" as="targetPoint" />
          </mxGeometry>
        </mxCell>
        <mxCell id="VDtPEl2qfjK_g-uWMviU-15" value="" style="endArrow=none;html=1;rounded=0;" parent="1" edge="1">
          <mxGeometry width="50" height="50" relative="1" as="geometry">
            <mxPoint x="160" y="180" as="sourcePoint" />
            <mxPoint x="360" y="180" as="targetPoint" />
          </mxGeometry>
        </mxCell>
        <mxCell id="VDtPEl2qfjK_g-uWMviU-16" value="" style="endArrow=none;html=1;rounded=0;" parent="1" edge="1">
          <mxGeometry width="50" height="50" relative="1" as="geometry">
            <mxPoint x="360" y="220" as="sourcePoint" />
            <mxPoint x="360" y="180" as="targetPoint" />
          </mxGeometry>
        </mxCell>
        <mxCell id="VDtPEl2qfjK_g-uWMviU-17" value="" style="endArrow=classic;html=1;rounded=0;" parent="1" edge="1">
          <mxGeometry width="50" height="50" relative="1" as="geometry">
            <mxPoint x="360" y="220" as="sourcePoint" />
            <mxPoint x="165.0050000000001" y="219.65652652652227" as="targetPoint" />
            <Array as="points">
              <mxPoint x="165" y="220" />
            </Array>
          </mxGeometry>
        </mxCell>
        <mxCell id="VDtPEl2qfjK_g-uWMviU-19" value="建立TCP_Socket" style="text;html=1;strokeColor=none;fillColor=none;align=center;verticalAlign=middle;whiteSpace=wrap;rounded=0;" parent="1" vertex="1">
          <mxGeometry x="200" y="150" width="110" height="30" as="geometry" />
        </mxCell>
        <mxCell id="VDtPEl2qfjK_g-uWMviU-21" value="成功" style="text;html=1;strokeColor=none;fillColor=none;align=center;verticalAlign=middle;whiteSpace=wrap;rounded=0;" parent="1" vertex="1">
          <mxGeometry x="225" y="190" width="60" height="30" as="geometry" />
        </mxCell>
        <mxCell id="VDtPEl2qfjK_g-uWMviU-26" value="" style="endArrow=none;html=1;rounded=0;" parent="1" edge="1">
          <mxGeometry width="50" height="50" relative="1" as="geometry">
            <mxPoint x="160" y="260" as="sourcePoint" />
            <mxPoint x="360" y="260" as="targetPoint" />
          </mxGeometry>
        </mxCell>
        <mxCell id="VDtPEl2qfjK_g-uWMviU-27" value="" style="endArrow=none;html=1;rounded=0;" parent="1" edge="1">
          <mxGeometry width="50" height="50" relative="1" as="geometry">
            <mxPoint x="360" y="300" as="sourcePoint" />
            <mxPoint x="360" y="260" as="targetPoint" />
          </mxGeometry>
        </mxCell>
        <mxCell id="VDtPEl2qfjK_g-uWMviU-28" value="" style="endArrow=classic;html=1;rounded=0;entryX=0.171;entryY=-0.166;entryDx=0;entryDy=0;entryPerimeter=0;" parent="1" edge="1">
          <mxGeometry width="50" height="50" relative="1" as="geometry">
            <mxPoint x="360" y="300" as="sourcePoint" />
            <mxPoint x="166.66499999999996" y="301.1637500000004" as="targetPoint" />
            <Array as="points">
              <mxPoint x="210" y="300" />
              <mxPoint x="170" y="300" />
            </Array>
          </mxGeometry>
        </mxCell>
        <mxCell id="VDtPEl2qfjK_g-uWMviU-29" value="成功" style="text;html=1;strokeColor=none;fillColor=none;align=center;verticalAlign=middle;whiteSpace=wrap;rounded=0;" parent="1" vertex="1">
          <mxGeometry x="225" y="270" width="60" height="30" as="geometry" />
        </mxCell>
        <mxCell id="VDtPEl2qfjK_g-uWMviU-30" value="設定Socket_option" style="text;html=1;strokeColor=none;fillColor=none;align=center;verticalAlign=middle;whiteSpace=wrap;rounded=0;" parent="1" vertex="1">
          <mxGeometry x="200" y="230" width="130" height="30" as="geometry" />
        </mxCell>
        <mxCell id="VDtPEl2qfjK_g-uWMviU-35" value="" style="endArrow=none;html=1;rounded=0;" parent="1" edge="1">
          <mxGeometry width="50" height="50" relative="1" as="geometry">
            <mxPoint x="160" y="340" as="sourcePoint" />
            <mxPoint x="360" y="340" as="targetPoint" />
          </mxGeometry>
        </mxCell>
        <mxCell id="VDtPEl2qfjK_g-uWMviU-36" value="" style="endArrow=none;html=1;rounded=0;" parent="1" edge="1">
          <mxGeometry width="50" height="50" relative="1" as="geometry">
            <mxPoint x="360" y="380" as="sourcePoint" />
            <mxPoint x="360" y="340" as="targetPoint" />
          </mxGeometry>
        </mxCell>
        <mxCell id="VDtPEl2qfjK_g-uWMviU-37" value="" style="endArrow=classic;html=1;rounded=0;" parent="1" edge="1">
          <mxGeometry width="50" height="50" relative="1" as="geometry">
            <mxPoint x="360" y="380" as="sourcePoint" />
            <mxPoint x="170" y="380" as="targetPoint" />
          </mxGeometry>
        </mxCell>
        <mxCell id="VDtPEl2qfjK_g-uWMviU-38" value="成功" style="text;html=1;strokeColor=none;fillColor=none;align=center;verticalAlign=middle;whiteSpace=wrap;rounded=0;" parent="1" vertex="1">
          <mxGeometry x="229.86" y="350" width="60" height="30" as="geometry" />
        </mxCell>
        <mxCell id="VDtPEl2qfjK_g-uWMviU-39" value="設定要監聽的ip_addr 和 port" style="text;html=1;strokeColor=none;fillColor=none;align=center;verticalAlign=middle;whiteSpace=wrap;rounded=0;" parent="1" vertex="1">
          <mxGeometry x="175" y="310" width="160" height="30" as="geometry" />
        </mxCell>
        <mxCell id="VDtPEl2qfjK_g-uWMviU-45" value="監聽" style="text;html=1;strokeColor=none;fillColor=none;align=center;verticalAlign=middle;whiteSpace=wrap;rounded=0;" parent="1" vertex="1">
          <mxGeometry x="350" y="400" width="60" height="30" as="geometry" />
        </mxCell>
        <mxCell id="VDtPEl2qfjK_g-uWMviU-46" value="" style="endArrow=classic;html=1;rounded=0;" parent="1" edge="1">
          <mxGeometry width="50" height="50" relative="1" as="geometry">
            <mxPoint x="160" y="430" as="sourcePoint" />
            <mxPoint x="440" y="430" as="targetPoint" />
          </mxGeometry>
        </mxCell>
        <mxCell id="VDtPEl2qfjK_g-uWMviU-51" value="" style="endArrow=none;dashed=1;html=1;rounded=0;" parent="1" target="VDtPEl2qfjK_g-uWMviU-50" edge="1">
          <mxGeometry width="50" height="50" relative="1" as="geometry">
            <mxPoint x="448" y="790" as="sourcePoint" />
            <mxPoint x="440" y="508" as="targetPoint" />
          </mxGeometry>
        </mxCell>
        <mxCell id="VDtPEl2qfjK_g-uWMviU-50" value="" style="rounded=0;whiteSpace=wrap;html=1;rotation=90;" parent="1" vertex="1">
          <mxGeometry x="174.45" y="685.55" width="546.09" height="10" as="geometry" />
        </mxCell>
        <mxCell id="VDtPEl2qfjK_g-uWMviU-56" value="" style="endArrow=none;html=1;rounded=0;" parent="1" edge="1">
          <mxGeometry width="50" height="50" relative="1" as="geometry">
            <mxPoint x="453.5" y="450" as="sourcePoint" />
            <mxPoint x="653.5" y="450" as="targetPoint" />
          </mxGeometry>
        </mxCell>
        <mxCell id="VDtPEl2qfjK_g-uWMviU-57" value="" style="endArrow=none;html=1;rounded=0;" parent="1" edge="1">
          <mxGeometry width="50" height="50" relative="1" as="geometry">
            <mxPoint x="653.5" y="490" as="sourcePoint" />
            <mxPoint x="653.5" y="450" as="targetPoint" />
          </mxGeometry>
        </mxCell>
        <mxCell id="VDtPEl2qfjK_g-uWMviU-58" value="" style="endArrow=classic;html=1;rounded=0;" parent="1" edge="1">
          <mxGeometry width="50" height="50" relative="1" as="geometry">
            <mxPoint x="653.5" y="490" as="sourcePoint" />
            <mxPoint x="460" y="490" as="targetPoint" />
          </mxGeometry>
        </mxCell>
        <mxCell id="VDtPEl2qfjK_g-uWMviU-59" value="成功" style="text;html=1;strokeColor=none;fillColor=none;align=center;verticalAlign=middle;whiteSpace=wrap;rounded=0;" parent="1" vertex="1">
          <mxGeometry x="518.5" y="460" width="60" height="30" as="geometry" />
        </mxCell>
        <mxCell id="VDtPEl2qfjK_g-uWMviU-60" value="建立TCP_Socket" style="text;html=1;strokeColor=none;fillColor=none;align=center;verticalAlign=middle;whiteSpace=wrap;rounded=0;" parent="1" vertex="1">
          <mxGeometry x="493.5" y="420" width="110" height="30" as="geometry" />
        </mxCell>
        <mxCell id="VDtPEl2qfjK_g-uWMviU-61" value="" style="endArrow=none;html=1;rounded=0;" parent="1" edge="1">
          <mxGeometry width="50" height="50" relative="1" as="geometry">
            <mxPoint x="451.5" y="520" as="sourcePoint" />
            <mxPoint x="651.5" y="520" as="targetPoint" />
          </mxGeometry>
        </mxCell>
        <mxCell id="VDtPEl2qfjK_g-uWMviU-62" value="" style="endArrow=none;html=1;rounded=0;" parent="1" edge="1">
          <mxGeometry width="50" height="50" relative="1" as="geometry">
            <mxPoint x="651.5" y="560" as="sourcePoint" />
            <mxPoint x="651.5" y="520" as="targetPoint" />
          </mxGeometry>
        </mxCell>
        <mxCell id="VDtPEl2qfjK_g-uWMviU-63" value="" style="endArrow=classic;html=1;rounded=0;entryX=0.262;entryY=-0.192;entryDx=0;entryDy=0;entryPerimeter=0;" parent="1" target="VDtPEl2qfjK_g-uWMviU-50" edge="1">
          <mxGeometry width="50" height="50" relative="1" as="geometry">
            <mxPoint x="651.5" y="560" as="sourcePoint" />
            <mxPoint x="460" y="560" as="targetPoint" />
          </mxGeometry>
        </mxCell>
        <mxCell id="VDtPEl2qfjK_g-uWMviU-64" value="成功" style="text;html=1;strokeColor=none;fillColor=none;align=center;verticalAlign=middle;whiteSpace=wrap;rounded=0;" parent="1" vertex="1">
          <mxGeometry x="516.5" y="530" width="60" height="30" as="geometry" />
        </mxCell>
        <mxCell id="VDtPEl2qfjK_g-uWMviU-65" value="連接到Server" style="text;html=1;strokeColor=none;fillColor=none;align=center;verticalAlign=middle;whiteSpace=wrap;rounded=0;" parent="1" vertex="1">
          <mxGeometry x="502.75" y="492.5" width="91.5" height="30" as="geometry" />
        </mxCell>
        <mxCell id="VDtPEl2qfjK_g-uWMviU-68" value="" style="endArrow=none;html=1;rounded=0;" parent="1" edge="1">
          <mxGeometry width="50" height="50" relative="1" as="geometry">
            <mxPoint x="451.5" y="585" as="sourcePoint" />
            <mxPoint x="651.5" y="585" as="targetPoint" />
          </mxGeometry>
        </mxCell>
        <mxCell id="VDtPEl2qfjK_g-uWMviU-69" value="" style="endArrow=none;html=1;rounded=0;" parent="1" edge="1">
          <mxGeometry width="50" height="50" relative="1" as="geometry">
            <mxPoint x="651.5" y="625" as="sourcePoint" />
            <mxPoint x="651.5" y="585" as="targetPoint" />
          </mxGeometry>
        </mxCell>
        <mxCell id="VDtPEl2qfjK_g-uWMviU-70" value="" style="endArrow=classic;html=1;rounded=0;entryX=0.38;entryY=-0.192;entryDx=0;entryDy=0;entryPerimeter=0;" parent="1" target="VDtPEl2qfjK_g-uWMviU-50" edge="1">
          <mxGeometry width="50" height="50" relative="1" as="geometry">
            <mxPoint x="651.5" y="625" as="sourcePoint" />
            <mxPoint x="450" y="625" as="targetPoint" />
          </mxGeometry>
        </mxCell>
        <mxCell id="VDtPEl2qfjK_g-uWMviU-71" value="成功" style="text;html=1;strokeColor=none;fillColor=none;align=center;verticalAlign=middle;whiteSpace=wrap;rounded=0;" parent="1" vertex="1">
          <mxGeometry x="516.5" y="595" width="60" height="30" as="geometry" />
        </mxCell>
        <mxCell id="VDtPEl2qfjK_g-uWMviU-72" value="輸入數字n" style="text;html=1;strokeColor=none;fillColor=none;align=center;verticalAlign=middle;whiteSpace=wrap;rounded=0;" parent="1" vertex="1">
          <mxGeometry x="516.5" y="560" width="60" height="30" as="geometry" />
        </mxCell>
        <mxCell id="Im7PTnw3nB9S1ZVfsVjB-3" value="" style="swimlane;startSize=0;" parent="1" vertex="1">
          <mxGeometry x="120" y="550" width="570" height="350" as="geometry" />
        </mxCell>
        <mxCell id="Yl5U9rDFYTrx_f_o4PTZ-11" value="child_thread" style="text;html=1;strokeColor=none;fillColor=none;align=center;verticalAlign=middle;whiteSpace=wrap;rounded=0;" vertex="1" parent="Im7PTnw3nB9S1ZVfsVjB-3">
          <mxGeometry x="50" y="35" width="60" height="30" as="geometry" />
        </mxCell>
        <mxCell id="VDtPEl2qfjK_g-uWMviU-66" value="" style="endArrow=classic;html=1;rounded=0;entryX=0.598;entryY=0.108;entryDx=0;entryDy=0;entryPerimeter=0;" parent="Im7PTnw3nB9S1ZVfsVjB-3" edge="1">
          <mxGeometry width="50" height="50" relative="1" as="geometry">
            <mxPoint x="320" y="90" as="sourcePoint" />
            <mxPoint x="43.924999999999955" y="91.16250000000036" as="targetPoint" />
            <Array as="points" />
          </mxGeometry>
        </mxCell>
        <mxCell id="Im7PTnw3nB9S1ZVfsVjB-5" value="接收並fork" style="text;html=1;strokeColor=none;fillColor=none;align=center;verticalAlign=middle;whiteSpace=wrap;rounded=0;" parent="Im7PTnw3nB9S1ZVfsVjB-3" vertex="1">
          <mxGeometry x="150" y="59.379999999999995" width="60" height="30" as="geometry" />
        </mxCell>
        <mxCell id="Im7PTnw3nB9S1ZVfsVjB-7" value="回傳n - 1" style="text;html=1;strokeColor=none;fillColor=none;align=center;verticalAlign=middle;whiteSpace=wrap;rounded=0;" parent="Im7PTnw3nB9S1ZVfsVjB-3" vertex="1">
          <mxGeometry x="150" y="110" width="60" height="30" as="geometry" />
        </mxCell>
        <mxCell id="Im7PTnw3nB9S1ZVfsVjB-9" value="回傳n - 1" style="text;html=1;strokeColor=none;fillColor=none;align=center;verticalAlign=middle;whiteSpace=wrap;rounded=0;" parent="Im7PTnw3nB9S1ZVfsVjB-3" vertex="1">
          <mxGeometry x="150" y="150" width="60" height="30" as="geometry" />
        </mxCell>
        <mxCell id="Im7PTnw3nB9S1ZVfsVjB-10" value="Loop" style="rounded=0;whiteSpace=wrap;html=1;" parent="Im7PTnw3nB9S1ZVfsVjB-3" vertex="1">
          <mxGeometry width="60" height="20" as="geometry" />
        </mxCell>
        <mxCell id="Im7PTnw3nB9S1ZVfsVjB-16" value="IF&amp;nbsp; n == 0" style="text;html=1;strokeColor=none;fillColor=none;align=center;verticalAlign=middle;whiteSpace=wrap;rounded=0;" parent="Im7PTnw3nB9S1ZVfsVjB-3" vertex="1">
          <mxGeometry x="510" y="320" width="60" height="30" as="geometry" />
        </mxCell>
        <mxCell id="Im7PTnw3nB9S1ZVfsVjB-6" value="" style="endArrow=classic;html=1;rounded=0;exitX=0.659;exitY=-0.059;exitDx=0;exitDy=0;exitPerimeter=0;" parent="1" edge="1">
          <mxGeometry width="50" height="50" relative="1" as="geometry">
            <mxPoint x="165.59500000000003" y="689.7337500000003" as="sourcePoint" />
            <mxPoint x="440" y="691" as="targetPoint" />
          </mxGeometry>
        </mxCell>
        <mxCell id="Im7PTnw3nB9S1ZVfsVjB-8" value="" style="endArrow=classic;html=1;rounded=0;exitX=0.571;exitY=1.036;exitDx=0;exitDy=0;exitPerimeter=0;entryX=0.709;entryY=-0.009;entryDx=0;entryDy=0;entryPerimeter=0;" parent="1" source="VDtPEl2qfjK_g-uWMviU-50" edge="1">
          <mxGeometry width="50" height="50" relative="1" as="geometry">
            <mxPoint x="310" y="760" as="sourcePoint" />
            <mxPoint x="165.09500000000003" y="729.5462500000001" as="targetPoint" />
          </mxGeometry>
        </mxCell>
        <mxCell id="Im7PTnw3nB9S1ZVfsVjB-21" value="" style="swimlane;startSize=0;" parent="1" vertex="1">
          <mxGeometry x="140" y="760" width="340" height="140" as="geometry" />
        </mxCell>
        <mxCell id="Im7PTnw3nB9S1ZVfsVjB-25" value="if server return = 0" style="rounded=0;whiteSpace=wrap;html=1;" parent="Im7PTnw3nB9S1ZVfsVjB-21" vertex="1">
          <mxGeometry width="100" height="20" as="geometry" />
        </mxCell>
        <mxCell id="Im7PTnw3nB9S1ZVfsVjB-29" value="回傳0" style="text;html=1;strokeColor=none;fillColor=none;align=center;verticalAlign=middle;whiteSpace=wrap;rounded=0;" parent="Im7PTnw3nB9S1ZVfsVjB-21" vertex="1">
          <mxGeometry x="130" width="60" height="30" as="geometry" />
        </mxCell>
        <mxCell id="Im7PTnw3nB9S1ZVfsVjB-32" value="stop()" style="text;html=1;strokeColor=none;fillColor=none;align=center;verticalAlign=middle;whiteSpace=wrap;rounded=0;" parent="Im7PTnw3nB9S1ZVfsVjB-21" vertex="1">
          <mxGeometry x="130" y="30" width="60" height="30" as="geometry" />
        </mxCell>
        <mxCell id="Im7PTnw3nB9S1ZVfsVjB-33" value="" style="shape=umlDestroy;whiteSpace=wrap;html=1;strokeWidth=3;targetShapes=umlLifeline;" parent="Im7PTnw3nB9S1ZVfsVjB-21" vertex="1">
          <mxGeometry x="300" y="50" width="10" height="10" as="geometry" />
        </mxCell>
        <mxCell id="Im7PTnw3nB9S1ZVfsVjB-34" value="" style="swimlane;startSize=0;" parent="Im7PTnw3nB9S1ZVfsVjB-21" vertex="1">
          <mxGeometry y="70" width="340" height="70" as="geometry" />
        </mxCell>
        <mxCell id="Im7PTnw3nB9S1ZVfsVjB-35" value="if client return = 0" style="rounded=0;whiteSpace=wrap;html=1;" parent="Im7PTnw3nB9S1ZVfsVjB-34" vertex="1">
          <mxGeometry width="100" height="20" as="geometry" />
        </mxCell>
        <mxCell id="Im7PTnw3nB9S1ZVfsVjB-36" value="回傳0" style="text;html=1;strokeColor=none;fillColor=none;align=center;verticalAlign=middle;whiteSpace=wrap;rounded=0;" parent="Im7PTnw3nB9S1ZVfsVjB-34" vertex="1">
          <mxGeometry x="130" width="60" height="30" as="geometry" />
        </mxCell>
        <mxCell id="Im7PTnw3nB9S1ZVfsVjB-37" value="stop()" style="text;html=1;strokeColor=none;fillColor=none;align=center;verticalAlign=middle;whiteSpace=wrap;rounded=0;" parent="Im7PTnw3nB9S1ZVfsVjB-34" vertex="1">
          <mxGeometry x="130" y="30" width="60" height="30" as="geometry" />
        </mxCell>
        <mxCell id="Im7PTnw3nB9S1ZVfsVjB-38" value="" style="shape=umlDestroy;whiteSpace=wrap;html=1;strokeWidth=3;targetShapes=umlLifeline;" parent="Im7PTnw3nB9S1ZVfsVjB-34" vertex="1">
          <mxGeometry x="300" y="50" width="10" height="10" as="geometry" />
        </mxCell>
        <mxCell id="Im7PTnw3nB9S1ZVfsVjB-26" value="" style="endArrow=classic;html=1;rounded=0;exitX=0.78;exitY=-0.012;exitDx=0;exitDy=0;exitPerimeter=0;entryX=0.676;entryY=0.894;entryDx=0;entryDy=0;entryPerimeter=0;" parent="1" target="VDtPEl2qfjK_g-uWMviU-50" edge="1">
          <mxGeometry width="50" height="50" relative="1" as="geometry">
            <mxPoint x="165.125" y="786.0800000000002" as="sourcePoint" />
            <mxPoint x="440" y="799" as="targetPoint" />
          </mxGeometry>
        </mxCell>
        <mxCell id="Im7PTnw3nB9S1ZVfsVjB-30" value="" style="endArrow=classic;html=1;rounded=0;exitX=0.817;exitY=-0.098;exitDx=0;exitDy=0;exitPerimeter=0;entryX=0.125;entryY=0.421;entryDx=0;entryDy=0;entryPerimeter=0;" parent="1" target="Im7PTnw3nB9S1ZVfsVjB-33" edge="1">
          <mxGeometry width="50" height="50" relative="1" as="geometry">
            <mxPoint x="165.98500000000013" y="815.5412500000004" as="sourcePoint" />
            <mxPoint x="410" y="810" as="targetPoint" />
          </mxGeometry>
        </mxCell>
        <mxCell id="Im7PTnw3nB9S1ZVfsVjB-41" value="" style="endArrow=classic;html=1;rounded=0;entryX=0.869;entryY=-0.084;entryDx=0;entryDy=0;entryPerimeter=0;" parent="1" edge="1">
          <mxGeometry width="50" height="50" relative="1" as="geometry">
            <mxPoint x="440" y="857" as="sourcePoint" />
            <mxPoint x="165.84500000000003" y="856.9462500000004" as="targetPoint" />
            <Array as="points" />
          </mxGeometry>
        </mxCell>
        <mxCell id="Im7PTnw3nB9S1ZVfsVjB-43" value="" style="endArrow=classic;html=1;rounded=0;exitX=0.125;exitY=0.446;exitDx=0;exitDy=0;exitPerimeter=0;entryX=0.906;entryY=-0.241;entryDx=0;entryDy=0;entryPerimeter=0;" parent="1" source="Im7PTnw3nB9S1ZVfsVjB-38" edge="1">
          <mxGeometry width="50" height="50" relative="1" as="geometry">
            <mxPoint x="300" y="950" as="sourcePoint" />
            <mxPoint x="167.4150000000002" y="886.4075000000005" as="targetPoint" />
          </mxGeometry>
        </mxCell>
        <mxCell id="Yl5U9rDFYTrx_f_o4PTZ-5" value="" style="rounded=0;whiteSpace=wrap;html=1;rotation=90;" vertex="1" parent="1">
          <mxGeometry x="20" y="300" width="280" height="10" as="geometry" />
        </mxCell>
        <mxCell id="Yl5U9rDFYTrx_f_o4PTZ-10" value="main_thread" style="text;html=1;strokeColor=none;fillColor=none;align=center;verticalAlign=middle;whiteSpace=wrap;rounded=0;" vertex="1" parent="1">
          <mxGeometry x="80" y="290" width="60" height="30" as="geometry" />
        </mxCell>
      </root>
    </mxGraphModel>
  </diagram>
</mxfile>
